# xmcd CD database file
# 
# Track frame offsets:
# 	150
# 	18915
# 	33075
# 	42977
# 	53985
# 	67855
# 	78155
# 	89852
# 	101395
# 	114305
# 	130732
# 	140870
# 	155840
# 	169780
# 	178685
# 	191822
# 	217182
# 
# Disc length: 2913 seconds
# 
# Submitted via: Nero 6, 6, 0, 12
# 
# Revision: 0
# Processed by: cddbd v1.5.1PL0 Copyright (c) Steve Scherf et al.
#
DISCID=ef0b5f11
DTITLE=Various Artist - The Definition Of Music 'BLUEGRASS'
DYEAR=1900
DGENRE=
TTITLE0=Man Of Constant Sorrow
TTITLE1=Dueling Banjos
TTITLE2=Blue Moon Of Kentucky
TTITLE3=Orange Blossom Special
TTITLE4=Roll In My Sweet Baby's Arms
TTITLE5=Ballad Of Jed Clampett
TTITLE6=New Mule Skinner Blues
TTITLE7=Foggy Mountain Breakdown
TTITLE8=Uncle Pen
TTITLE9=Keep On the Sunny Side
TTITLE10=Big Rock Candy Mountain
TTITLE11=Can The Circle Be Unbroken
TTITLE12=Rocky Top
TTITLE13=Little Maggie
TTITLE14=Widow Maker
TTITLE15=The Lucky One (Bonus Track)
TTITLE16=SPECIALLY ENHANCED CD  LISTEN AND LEARN
EXTD=
EXTT0=
EXTT1=
EXTT2=
EXTT3=
EXTT4=
EXTT5=
EXTT6=
EXTT7=
EXTT8=
EXTT9=
EXTT10=
EXTT11=
EXTT12=
EXTT13=
EXTT14=
EXTT15=
EXTT16=
PLAYORDER=
